<svg width="68" height="15" viewBox="0 0 68 15" fill="none" xmlns="http://www.w3.org/2000/svg">
<path d="M3.192 12.4344V4.48243H0.056V2.63443H8.596V4.48243H5.46V12.4344H3.192ZM13.8796 12.6024C13.1049 12.6024 12.3862 12.4764 11.7236 12.2244C11.0702 11.9724 10.5009 11.6178 10.0156 11.1604C9.53958 10.7031 9.16624 10.1664 8.89558 9.55043C8.63424 8.93443 8.50358 8.26243 8.50358 7.53443C8.50358 6.80643 8.63424 6.13443 8.89558 5.51843C9.16624 4.90243 9.54424 4.36577 10.0296 3.90843C10.5149 3.4511 11.0842 3.09643 11.7376 2.84443C12.3909 2.59243 13.1002 2.46643 13.8656 2.46643C14.6402 2.46643 15.3496 2.59243 15.9936 2.84443C16.6469 3.09643 17.2116 3.4511 17.6876 3.90843C18.1729 4.36577 18.5509 4.90243 18.8216 5.51843C19.0922 6.1251 19.2276 6.7971 19.2276 7.53443C19.2276 8.26243 19.0922 8.9391 18.8216 9.56443C18.5509 10.1804 18.1729 10.7171 17.6876 11.1744C17.2116 11.6224 16.6469 11.9724 15.9936 12.2244C15.3496 12.4764 14.6449 12.6024 13.8796 12.6024ZM13.8656 10.6704C14.3042 10.6704 14.7056 10.5958 15.0696 10.4464C15.4429 10.2971 15.7696 10.0824 16.0496 9.80243C16.3296 9.52243 16.5442 9.1911 16.6936 8.80843C16.8522 8.42577 16.9316 8.0011 16.9316 7.53443C16.9316 7.06777 16.8522 6.6431 16.6936 6.26043C16.5442 5.87777 16.3296 5.54643 16.0496 5.26643C15.7789 4.98643 15.4569 4.77177 15.0836 4.62243C14.7102 4.4731 14.3042 4.39843 13.8656 4.39843C13.4269 4.39843 13.0209 4.4731 12.6476 4.62243C12.2836 4.77177 11.9616 4.98643 11.6816 5.26643C11.4016 5.54643 11.1822 5.87777 11.0236 6.26043C10.8742 6.6431 10.7996 7.06777 10.7996 7.53443C10.7996 7.99177 10.8742 8.41643 11.0236 8.80843C11.1822 9.1911 11.3969 9.52243 11.6676 9.80243C11.9476 10.0824 12.2742 10.2971 12.6476 10.4464C13.0209 10.5958 13.4269 10.6704 13.8656 10.6704ZM20.3721 12.4344V2.63443H24.6141C25.4914 2.63443 26.2474 2.7791 26.8821 3.06843C27.5167 3.34843 28.0067 3.75443 28.3521 4.28643C28.6974 4.81843 28.8701 5.4531 28.8701 6.19043C28.8701 6.91843 28.6974 7.54843 28.3521 8.08043C28.0067 8.61243 27.5167 9.0231 26.8821 9.31243C26.2474 9.59243 25.4914 9.73243 24.6141 9.73243H21.6321L22.6401 8.71043V12.4344H20.3721ZM22.6401 8.96243L21.6321 7.88443H24.4881C25.1881 7.88443 25.7107 7.7351 26.0561 7.43643C26.4014 7.13777 26.5741 6.72243 26.5741 6.19043C26.5741 5.6491 26.4014 5.2291 26.0561 4.93043C25.7107 4.63177 25.1881 4.48243 24.4881 4.48243H21.6321L22.6401 3.40443V8.96243ZM32.7599 12.4344L28.5319 2.63443H30.9819L34.6779 11.3144H33.2359L36.9879 2.63443H39.2419L34.9999 12.4344H32.7599ZM39.5001 12.4344V2.63443H41.7681V12.4344H39.5001ZM42.9039 12.4344V10.9644L48.9659 3.65643L49.2459 4.48243H43.0159V2.63443H51.2619V4.10443L45.2139 11.4124L44.9339 10.5864H51.4719V12.4344H42.9039ZM52.3665 12.4344V2.63443H54.6345V12.4344H52.3665ZM61.1602 12.6024C60.3855 12.6024 59.6669 12.4764 59.0042 12.2244C58.3509 11.9724 57.7815 11.6178 57.2962 11.1604C56.8202 10.7031 56.4469 10.1664 56.1762 9.55043C55.9149 8.93443 55.7842 8.26243 55.7842 7.53443C55.7842 6.80643 55.9149 6.13443 56.1762 5.51843C56.4469 4.90243 56.8249 4.36577 57.3102 3.90843C57.7955 3.4511 58.3649 3.09643 59.0182 2.84443C59.6715 2.59243 60.3809 2.46643 61.1462 2.46643C61.9209 2.46643 62.6302 2.59243 63.2742 2.84443C63.9275 3.09643 64.4922 3.4511 64.9682 3.90843C65.4535 4.36577 65.8315 4.90243 66.1022 5.51843C66.3729 6.1251 66.5082 6.7971 66.5082 7.53443C66.5082 8.26243 66.3729 8.9391 66.1022 9.56443C65.8315 10.1804 65.4535 10.7171 64.9682 11.1744C64.4922 11.6224 63.9275 11.9724 63.2742 12.2244C62.6302 12.4764 61.9255 12.6024 61.1602 12.6024ZM61.1462 10.6704C61.5849 10.6704 61.9862 10.5958 62.3502 10.4464C62.7235 10.2971 63.0502 10.0824 63.3302 9.80243C63.6102 9.52243 63.8249 9.1911 63.9742 8.80843C64.1329 8.42577 64.2122 8.0011 64.2122 7.53443C64.2122 7.06777 64.1329 6.6431 63.9742 6.26043C63.8249 5.87777 63.6102 5.54643 63.3302 5.26643C63.0595 4.98643 62.7375 4.77177 62.3642 4.62243C61.9909 4.4731 61.5849 4.39843 61.1462 4.39843C60.7075 4.39843 60.3015 4.4731 59.9282 4.62243C59.5642 4.77177 59.2422 4.98643 58.9622 5.26643C58.6822 5.54643 58.4629 5.87777 58.3042 6.26043C58.1549 6.6431 58.0802 7.06777 58.0802 7.53443C58.0802 7.99177 58.1549 8.41643 58.3042 8.80843C58.4629 9.1911 58.6775 9.52243 58.9482 9.80243C59.2282 10.0824 59.5549 10.2971 59.9282 10.4464C60.3015 10.5958 60.7075 10.6704 61.1462 10.6704Z" fill="white"/>
</svg>
